Brief.Encounter.1945.720p.Bluray.x264.anoXmous

Format                           : MPEG-4
Format profile                   : Base Media
Codec ID                         : isom
File size                        : 700 MiB
Duration                         : 1h 26mn
Overall bit rate mode            : Variable
Overall bit rate                 : 1 129 Kbps


Video
ID                               : 1
Format                           : AVC
Format/Info                      : Advanced Video Codec
Format profile                   : High@L4.1
Format settings, CABAC           : Yes
Format settings, ReFrames        : 4 frames
Codec ID                         : avc1
Codec ID/Info                    : Advanced Video Coding
Duration                         : 1h 26mn
Bit rate                         : 1 073 Kbps
Maximum bit rate                 : 4 721 Kbps
Width                            : 988 pixels
Height                           : 720 pixels
Display aspect ratio             : 1.372
Frame rate mode                  : Constant
Frame rate                       : 24.000 fps
Color space                      : YUV
Chroma subsampling               : 4:2:0
Bit depth                        : 8 bits
Scan type                        : Progressive
Bits/(Pixel*Frame)               : 0.063
Stream size                      : 664 MiB (95%)
Writing library                  : x264 core 120 r2120 0c7dab9


Audio
ID                               : 2
Format                           : AAC
Format/Info                      : Advanced Audio Codec
Format profile                   : LC
Codec ID                         : 40
Duration                         : 1h 26mn
Bit rate mode                    : Variable
Bit rate                         : 53.4 Kbps
Maximum bit rate                 : 62.2 Kbps
Channel(s)                       : 2 channels
Channel positions                : Front: L R
Sampling rate                    : 48.0 KHz 
Compression mode                 : Lossy
Stream size                      : 33.1 MiB (5%)
Language                         : English

                              SUB:
   Brief.Encounter.1945.720p.Bluray.x264.anoXmous_eng.srt
   Brief.Encounter.1945.720p.Bluray.x264.anoXmous_swe.srt

         http://www.imdb.com/title/tt0037558/

 +++++++++ This work very fine with PSP and XBOX :) ++++++++++
